<svg width="117" height="24" viewBox="0 0 117 24" fill="none" xmlns="http://www.w3.org/2000/svg">
<path fill-rule="evenodd" clip-rule="evenodd" d="M7.33577 23.9339C5.83272 23.9339 4.63814 23.5408 3.75201 22.7545C2.86588 21.9681 2.42282 20.7443 2.42282 19.0831V8.71684H0V6.45753H2.42282V1.27441H5.0139V6.45753H10.5326V8.71684H5.0139V18.7508C5.0139 20.6557 5.98975 21.6082 7.94148 21.6082C8.79396 21.6082 9.63521 21.4088 10.4653 21.0101V23.203C9.52304 23.6903 8.47989 23.9339 7.33577 23.9339ZM23.3421 24C21.5698 24 20.0444 23.5238 18.7657 22.5713C17.4869 21.6189 16.8476 20.2899 16.8476 18.5843C16.8476 16.7901 17.5206 15.4058 18.8666 14.4312C20.2126 13.4565 22.0185 12.9693 24.2843 12.9693C26.079 12.9693 27.8512 13.2129 29.6011 13.7002V13.1686C29.6011 11.6624 29.1524 10.5106 28.2551 9.71319C27.3577 8.91578 26.0902 8.51709 24.4526 8.51709C22.7476 8.51709 20.9866 8.92686 19.1695 9.74642L18.3955 7.65323C20.5491 6.67863 22.6579 6.19133 24.7218 6.19133C27.1895 6.19133 29.0627 6.8226 30.3414 8.08516C31.5528 9.28127 32.1585 10.9647 32.1585 13.1354V23.6345H29.6011V21.0762C28.0531 23.0254 25.9668 24 23.3421 24ZM23.8472 21.9401C25.4624 21.9401 26.8309 21.5082 27.9525 20.6444C29.0742 19.7805 29.6351 18.673 29.6351 17.3219V15.727C27.9301 15.2397 26.2364 14.9961 24.5539 14.9961C22.9611 14.9961 21.716 15.3117 20.8187 15.943C19.9213 16.5743 19.4727 17.4326 19.4727 18.518C19.4727 19.559 19.8933 20.3896 20.7345 21.0098C21.5758 21.63 22.6133 21.9401 23.8472 21.9401ZM47.0885 23.9999C45.0246 23.9999 43.3982 23.3742 42.2092 22.1227C41.0203 20.8712 40.4258 19.2044 40.4258 17.1223V6.45703H43.0169V16.491C43.0169 18.108 43.4375 19.3761 44.2787 20.2953C45.12 21.2145 46.3034 21.6741 47.8289 21.6741C49.3319 21.6741 50.577 21.1758 51.564 20.179C52.5511 19.1822 53.0447 17.8865 53.0447 16.2917V6.45703H55.6021V23.6344H53.0447V20.6442C51.6313 22.8813 49.646 23.9999 47.0885 23.9999ZM64.4727 23.6347V6.45735H67.0637V10.9427C67.7367 9.45868 68.6902 8.27366 69.924 7.38765C71.1579 6.50164 72.5712 6.09187 74.1639 6.15832V8.91601H73.9621C71.9655 8.91601 70.3166 9.60265 69.0154 10.976C67.7143 12.3493 67.0637 14.2874 67.0637 16.7904V23.6347H64.4727ZM87.5456 23.9999C85.4817 23.9999 83.8553 23.3742 82.6663 22.1227C81.4773 20.8712 80.8828 19.2044 80.8828 17.1223V6.45703H83.4739V16.491C83.4739 18.108 83.8945 19.3761 84.7358 20.2953C85.577 21.2145 86.7604 21.6741 88.2859 21.6741C89.7889 21.6741 91.034 21.1758 92.0211 20.179C93.0081 19.1822 93.5017 17.8865 93.5017 16.2917V6.45703H96.0591V23.6344H93.5017V20.6442C92.0884 22.8813 90.103 23.9999 87.5456 23.9999ZM110.688 23.9669C109.431 23.9669 108.158 23.7398 106.868 23.2858C105.578 22.8317 104.451 22.217 103.486 21.4418L104.799 19.6144C106.773 21.0763 108.781 21.8072 110.822 21.8072C111.876 21.8072 112.74 21.5525 113.413 21.0431C114.086 20.5336 114.423 19.858 114.423 19.0163C114.423 18.2411 114.058 17.643 113.329 17.2222C112.6 16.8013 111.518 16.3915 110.082 15.9928C109.207 15.7492 108.511 15.5277 107.995 15.3283C107.479 15.129 106.896 14.8466 106.246 14.4811C105.595 14.1156 105.113 13.6505 104.799 13.0856C104.485 12.5208 104.328 11.8508 104.328 11.0755C104.328 9.61361 104.883 8.42859 105.993 7.52043C107.104 6.61228 108.523 6.1582 110.25 6.1582C112.493 6.1582 114.58 6.78947 116.509 8.05204L115.331 9.97909C113.604 8.87158 111.888 8.31784 110.183 8.31784C109.173 8.31784 108.36 8.55595 107.743 9.03218C107.126 9.50841 106.818 10.1231 106.818 10.8762C106.818 11.1863 106.907 11.4742 107.087 11.74C107.266 12.0058 107.468 12.2273 107.693 12.4045C107.917 12.5817 108.27 12.77 108.753 12.9694C109.235 13.1687 109.622 13.3127 109.914 13.4013C110.205 13.4899 110.665 13.6339 111.293 13.8332C112.123 14.0769 112.807 14.3094 113.346 14.5309C113.884 14.7524 114.456 15.0515 115.062 15.428C115.668 15.8046 116.122 16.2753 116.425 16.8401C116.728 17.4049 116.879 18.0639 116.879 18.817C116.879 20.4118 116.296 21.6688 115.129 22.588C113.963 23.5073 112.482 23.9669 110.688 23.9669ZM64.3009 2.7027L58.0352 0L65.8359 1.55724L73.6367 0L67.2621 2.7027H64.3009Z" fill="#363B4B"/>
</svg>
